<?xml version="1.0" encoding="utf-8"?>
<!-- Generator: Adobe Illustrator 16.0.0, SVG Export Plug-In . SVG Version: 6.00 Build 0)  -->
<!DOCTYPE svg PUBLIC "-//W3C//DTD SVG 1.1//EN" "http://www.w3.org/Graphics/SVG/1.1/DTD/svg11.dtd">
<svg version="1.1" id="Layer_1" xmlns="http://www.w3.org/2000/svg" xmlns:xlink="http://www.w3.org/1999/xlink" x="0px" y="0px"
	 width="175.876px" height="197.134px" viewBox="12.062 1.434 175.876 197.134"
	 enable-background="new 12.062 1.434 175.876 197.134" xml:space="preserve">
<g>
	<path fill="#FFFFFF" d="M100.852,165.186c-0.644,0.17-7.774,3.082-12.869,3.082c-21.646,0-34.538-12.354-34.538-36.567
		c0-21.925,11.69-35.942,32.66-34.987c4.104,0.187,9.983,1.609,13.293,2.696c6.729,2.217,11.293-7.79,13.635-15.816l1.943-6.707
		c0,0-15.325-8.281-42.092-8.281c-33.369,0-60.823,22.562-60.823,65.308c0,36.677,25.792,63.262,58.068,64.562
		c31.213,1.258,45.528-10.56,45.528-10.56S110.107,162.754,100.852,165.186z M138.652,191.992h16.994
		c12.39,0,22.438-10.041,22.438-22.434V73.715h-39.432V191.992L138.652,191.992z M169.876,14.428c-0.952-4.466-2-7.577-3.627-10.329
		c-1.207-1.869-3.226-2.349-4.492-2.491c-1.458-0.222-4.262-0.213-5.427-0.076c-1.652,0.193-2.78,0.523-3.969,1.787
		c-2.178,2.744-3.854,5.965-5.479,11.223c3.77-0.644,7.812-0.997,12.032-0.997C162.771,13.543,166.445,13.855,169.876,14.428z
		 M173.111,56.898c5.644-3.199,10.137-8.188,12.697-14.203c-2.838,1.516-6.248,2.788-10.107,3.741
		C175.173,50.575,174.312,53.961,173.111,56.898z M145.748,47.428c0.965,4.506,2.035,7.646,3.709,10.424
		c1.242,1.889,3.331,2.38,4.645,2.531c1.506,0.229,4.41,0.234,5.623,0.103c1.711-0.187,2.879-0.512,4.112-1.779
		c2.271-2.754,4.021-5.989,5.729-11.277c-3.902,0.629-8.099,0.969-12.467,0.949C153.105,48.356,149.299,48.021,145.748,47.428z
		 M186.034,20.002c-3.101-7.707-9.333-13.815-17.127-16.74c1.921,3.295,3.577,7.38,4.836,11.947
		C178.523,16.343,182.698,18.001,186.034,20.002z M158.479,44.584c4.276,0,8.233-0.179,11.832-0.54
		c0.735-3.844,1.162-8.189,1.162-12.977c0-3.856-0.226-7.475-0.632-10.809c-5.042-1.282-10.682-2.074-16.524-2.074
		c-3.109,0-5.946,0.189-8.534,0.529c-0.929,4.164-1.464,8.802-1.429,13.759c0.027,3.64,0.252,7,0.604,10.081
		C148.98,43.812,153.523,44.584,158.479,44.584z M141.1,46.588c-3.865-1.021-7.283-2.7-10.107-4.295
		c2.848,6.966,8.262,12.604,15.068,15.745C144.034,54.78,142.318,51.112,141.1,46.588z M139.831,19.778
		c-3.708,0.774-6.321,1.818-8.614,3.182c-1.557,1.013-1.97,2.729-2.098,3.81c-0.195,1.238-0.211,3.625-0.108,4.619
		c0.147,1.409,0.479,2.678,1.517,3.697c1.438,1.607,5.246,4.398,9.307,5.837C138.311,32.972,138.592,26.964,139.831,19.778z
		 M143.201,5.604c-5.475,3.292-9.792,8.295-12.227,14.271c2.644-1.509,5.789-2.817,9.338-3.842
		C140.991,12.123,141.959,8.602,143.201,5.604z M187.896,31.062c-0.197-1.447-0.588-2.743-1.717-3.763
		c-1.565-1.613-6.552-4.317-10.879-5.667c1.857,8.146,1.749,14.351,0.67,21.8c3.889-0.92,7.176-1.942,9.553-3.423
		c1.606-1.093,1.988-2.876,2.093-3.992C187.784,34.729,188.039,32.086,187.896,31.062z"/>
</g>
</svg>
